<?xml version="1.0" standalone="no"?>
<!DOCTYPE svg PUBLIC "-//W3C//DTD SVG 20010904//EN"
 "http://www.w3.org/TR/2001/REC-SVG-20010904/DTD/svg10.dtd">
<svg version="1.0" xmlns="http://www.w3.org/2000/svg"
 width="681.000000pt" height="643.000000pt" viewBox="0 0 681.000000 643.000000"
 preserveAspectRatio="xMidYMid meet">

<g transform="translate(0.000000,643.000000) scale(0.100000,-0.100000)"
fill="#000000" stroke="none">
<path d="M1690 5153 c0 -5 62 -182 138 -395 l137 -388 305 0 305 0 46 -138
c26 -75 92 -267 147 -427 55 -159 168 -488 252 -730 83 -242 164 -476 180
-520 l28 -80 394 -3 394 -2 21 62 c11 35 61 180 111 323 108 311 382 1106 459
1330 30 88 55 165 56 170 1 6 -110 12 -308 15 l-311 5 132 370 c72 204 135
381 139 394 l7 23 -243 -4 c-267 -5 -299 -11 -414 -71 -84 -45 -203 -165 -243
-247 -17 -36 -56 -154 -86 -264 -30 -109 -57 -200 -59 -202 -6 -6 -539 -5
-545 1 -3 3 -30 94 -59 201 -66 244 -95 305 -193 405 -86 87 -181 140 -297
164 -72 16 -493 22 -493 8z m2223 -798 c-1 -9 -54 -236 -199 -855 -69 -294
-61 -270 -89 -270 -28 0 -24 -12 -85 250 -23 96 -50 211 -60 255 -11 44 -47
197 -80 340 -33 143 -63 268 -66 278 -5 16 12 17 288 15 188 -2 292 -7 291
-13z"/>
<path d="M2537 2033 c-4 -3 -7 -39 -7 -80 l0 -73 90 0 c84 0 90 1 90 21 0 47
-57 115 -104 124 -17 4 -38 8 -47 11 -8 2 -18 1 -22 -3z"/>
<path d="M4637 2026 c-61 -22 -107 -76 -107 -126 0 -19 6 -20 90 -20 l91 0 -3
77 c-3 87 -8 91 -71 69z"/>
<path d="M3172 1792 c-29 -11 -65 -31 -81 -46 -38 -37 -51 -33 -51 14 l0 40
-80 0 -80 0 0 -345 0 -345 89 0 90 0 3 218 3 217 28 37 c30 39 89 68 138 68
51 0 122 -37 149 -78 24 -36 25 -42 28 -249 l3 -213 90 0 91 0 -4 253 c-3 236
-4 255 -25 293 -29 55 -79 103 -132 126 -65 30 -190 34 -259 10z"/>
<path d="M5171 1796 c-24 -8 -61 -28 -82 -45 -52 -42 -63 -40 -55 9 l6 41 -82
-3 -83 -3 -3 -342 -2 -343 89 0 90 0 3 213 3 214 29 41 c70 101 236 91 293
-18 22 -41 23 -54 23 -247 l0 -203 90 0 90 0 0 234 c0 189 -3 243 -16 284 -36
112 -126 171 -266 178 -55 3 -98 -1 -127 -10z"/>
<path d="M1696 1791 c-4 -5 16 -63 43 -128 44 -105 162 -394 209 -510 l17 -43
105 0 105 0 47 118 c26 64 86 212 133 327 48 116 88 217 88 225 3 20 -165 28
-183 8 -7 -7 -49 -112 -95 -233 -48 -130 -87 -220 -95 -220 -7 0 -47 92 -98
225 -46 124 -90 228 -96 232 -16 11 -174 10 -180 -1z"/>
<path d="M2530 1455 l0 -345 95 0 95 0 0 345 0 345 -95 0 -95 0 0 -345z"/>
<path d="M3680 1796 c0 -3 41 -105 91 -228 51 -123 113 -275 139 -338 l46
-115 105 -3 104 -3 133 326 c74 179 136 334 139 345 5 19 0 20 -80 20 -47 0
-92 -2 -99 -5 -8 -3 -52 -109 -98 -235 -57 -154 -89 -229 -98 -228 -8 2 -49
99 -93 216 -43 118 -83 222 -89 231 -8 16 -24 19 -105 20 -52 1 -95 0 -95 -3z"/>
<path d="M4520 1455 l0 -345 95 0 95 0 0 345 0 345 -95 0 -95 0 0 -345z"/>
</g>
</svg>
